Coordinates
version=1
nRows=5
nColumns=40
inDegrees=yes

Units are S.I. units (second, meters, Newtons, ...)
Angles are in degrees.

endheader
time	pelvis_tilt	pelvis_list	pelvis_rotation	pelvis_tx	pelvis_ty	pelvis_tz	hip_flexion_r	hip_adduction_r	hip_rotation_r	knee_angle_r	knee_angle_r_beta	ankle_angle_r	subtalar_angle_r	mtp_angle_r	hip_flexion_l	hip_adduction_l	hip_rotation_l	knee_angle_l	knee_angle_l_beta	ankle_angle_l	subtalar_angle_l	mtp_angle_l	lumbar_extension	lumbar_bending	lumbar_rotation	arm_flex_r	arm_add_r	arm_rot_r	elbow_flex_r	pro_sup_r	wrist_flex_r	wrist_dev_r	arm_flex_l	arm_add_l	arm_rot_l	elbow_flex_l	pro_sup_l	wrist_flex_l	wrist_dev_l
     32.16528571	     -4.76298574	     -3.73815819	      2.04734370	      0.92896526	      0.93259301	      0.50895145	      9.44867096	      3.24246296	    -17.93612703	     13.07483293	     13.07483293	      9.76841731	     -0.24390282	     -6.02913650	     30.30208184	     -9.65351478	      0.57928066	     33.04878839	     33.04878839	     11.61384954	    -16.87801250	     11.33991574	     -9.42069196	      6.83633435	      2.99918166	     28.51890837	    -17.23275382	     -0.30695341	     50.10182544	     45.63551293	      0.00000000	      0.00000000	      2.84763285	     -6.76488341	     -6.39443214	     48.02295879	     46.70663363	      0.00000000	      0.00000000
     32.17807143	     -4.91219406	     -3.65183983	      2.30992794	      0.92753165	      0.93231718	      0.50842110	      9.14186663	      3.15681318	    -18.00893414	     12.86196129	     12.86196129	      9.97461249	     -0.32540972	     -6.09850542	     30.50134662	     -9.19585926	      0.75626412	     29.79815357	     29.79815357	     11.42396375	    -15.34293217	     11.19995315	     -9.44733834	      6.74206999	      2.53192802	     30.31442953	    -16.94526412	     -0.40450470	     51.67384267	     45.59098038	      0.00000000	      0.00000000	      1.90960575	     -6.70484998	     -6.14684526	     46.32280383	     46.65179007	      0.00000000	      0.00000000
     32.19085714	     -5.21664578	     -3.85490495	      2.57680133	      0.92596497	      0.93143770	      0.50782225	      9.10954575	      3.34407506	    -18.21337073	     12.82332950	     12.82332950	     10.22713122	     -0.44921696	     -6.22217942	     31.14474101	     -8.97927490	      1.21362859	     27.17035534	     27.17035534	     11.36320584	    -13.83329742	     11.33913642	     -9.27230741	      6.97456777	      2.67548317	     32.06954288	    -17.37621214	     -0.59373013	     52.56159196	     45.57687687	      0.00000000	      0.00000000	      1.00591762	     -6.37024001	     -6.00323220	     45.44189822	     46.61941364	      0.00000000	      0.00000000
     32.20364286	     -5.18656913	     -3.65454684	      2.78150726	      0.92492489	      0.93142236	      0.50725068	      8.55863288	      3.14759718	    -18.26965615	     12.58795337	     12.58795337	     10.48667855	     -0.37229432	     -6.31460744	     30.87966769	     -8.59931050	      0.63477155	     23.94025535	     23.94025535	     10.12342066	    -11.50477763	      8.66376269	     -9.39763314	      6.76973615	      2.70325937	     32.77887670	    -17.51217821	     -0.07176748	     56.20777843	     45.42672222	      0.00000000	      0.00000000	      2.33945592	     -6.04412311	     -5.56275848	     38.26581821	     46.51421251	      0.00000000	      0.00000000
     32.21642857	     -5.41924864	     -3.71352840	      3.01648870	      0.92359531	      0.93068731	      0.50654129	      8.44910665	      3.17855360	    -18.37365577	     12.58902012	     12.58902012	     10.78053123	     -0.54327246	     -6.40748228	     31.29816557	     -8.29488636	      0.73939704	     21.68397535	     21.68397535	      9.78141979	     -9.86779182	      8.89104067	     -9.29093864	      6.80125005	      2.54901233	     34.40710697	    -17.46826151	     -0.23848743	     57.39924552	     45.40010049	      0.00000000	      0.00000000	      1.38148300	     -5.94063537	     -5.46038518	     37.35524373	     46.48298592	      0.00000000	      0.00000000
